<?xml version="1.0" encoding="UTF-8" standalone="no"?>
<!DOCTYPE svg PUBLIC "-//W3C//DTD SVG 1.1//EN"
 "http://www.w3.org/Graphics/SVG/1.1/DTD/svg11.dtd">
<!-- Generated by graphviz version 2.38.0 (20140413.2041)
 -->
<!-- Title: G Pages: 1 -->
<svg width="1263pt" height="2436pt"
 viewBox="0.00 0.00 1262.96 2436.00" xmlns="http://www.w3.org/2000/svg" xmlns:xlink="http://www.w3.org/1999/xlink">
<g id="graph0" class="graph" transform="scale(1 1) rotate(0) translate(4 2432)">
<title>G</title>
<polygon fill="white" stroke="none" points="-4,4 -4,-2432 1258.96,-2432 1258.96,4 -4,4"/>
<g id="clust1" class="cluster"><title>cluster_Global</title>
<path fill="none" stroke="gray" d="M144.493,-44C144.493,-44 1234.96,-44 1234.96,-44 1240.96,-44 1246.96,-50 1246.96,-56 1246.96,-56 1246.96,-2408 1246.96,-2408 1246.96,-2414 1240.96,-2420 1234.96,-2420 1234.96,-2420 144.493,-2420 144.493,-2420 138.493,-2420 132.493,-2414 132.493,-2408 132.493,-2408 132.493,-56 132.493,-56 132.493,-50 138.493,-44 144.493,-44"/>
<text text-anchor="middle" x="689.728" y="-2407.2" font-family="Times New Roman,serif" font-size="11.00" fill="gray">Global</text>
</g>
<g id="clust2" class="cluster"><title>cluster_\Numenor</title>
<path fill="none" stroke="gray" d="M152.493,-52C152.493,-52 1226.96,-52 1226.96,-52 1232.96,-52 1238.96,-58 1238.96,-64 1238.96,-64 1238.96,-2380 1238.96,-2380 1238.96,-2386 1232.96,-2392 1226.96,-2392 1226.96,-2392 152.493,-2392 152.493,-2392 146.493,-2392 140.493,-2386 140.493,-2380 140.493,-2380 140.493,-64 140.493,-64 140.493,-58 146.493,-52 152.493,-52"/>
<text text-anchor="middle" x="689.728" y="-2379.2" font-family="Times New Roman,serif" font-size="11.00" fill="gray">Numenor</text>
</g>
<g id="clust3" class="cluster"><title>cluster_\Numenor\Cache</title>
<path fill="none" stroke="gray" d="M640.728,-2238C640.728,-2238 1108.46,-2238 1108.46,-2238 1114.46,-2238 1120.46,-2244 1120.46,-2250 1120.46,-2250 1120.46,-2352 1120.46,-2352 1120.46,-2358 1114.46,-2364 1108.46,-2364 1108.46,-2364 640.728,-2364 640.728,-2364 634.728,-2364 628.728,-2358 628.728,-2352 628.728,-2352 628.728,-2250 628.728,-2250 628.728,-2244 634.728,-2238 640.728,-2238"/>
<text text-anchor="middle" x="874.596" y="-2351.2" font-family="Times New Roman,serif" font-size="11.00" fill="gray">Cache</text>
</g>
<g id="clust4" class="cluster"><title>cluster_\Numenor\Excecao</title>
<path fill="none" stroke="gray" d="M160.493,-892C160.493,-892 1218.96,-892 1218.96,-892 1224.96,-892 1230.96,-898 1230.96,-904 1230.96,-904 1230.96,-2218 1230.96,-2218 1230.96,-2224 1224.96,-2230 1218.96,-2230 1218.96,-2230 160.493,-2230 160.493,-2230 154.493,-2230 148.493,-2224 148.493,-2218 148.493,-2218 148.493,-904 148.493,-904 148.493,-898 154.493,-892 160.493,-892"/>
<text text-anchor="middle" x="689.728" y="-2217.2" font-family="Times New Roman,serif" font-size="11.00" fill="gray">Excecao</text>
</g>
<g id="clust5" class="cluster"><title>cluster_\Numenor\Excecao\Php</title>
<path fill="none" stroke="gray" d="M635.728,-1322C635.728,-1322 1210.96,-1322 1210.96,-1322 1216.96,-1322 1222.96,-1328 1222.96,-1334 1222.96,-1334 1222.96,-2092 1222.96,-2092 1222.96,-2098 1216.96,-2104 1210.96,-2104 1210.96,-2104 635.728,-2104 635.728,-2104 629.728,-2104 623.728,-2098 623.728,-2092 623.728,-2092 623.728,-1334 623.728,-1334 623.728,-1328 629.728,-1322 635.728,-1322"/>
<text text-anchor="middle" x="923.346" y="-2091.2" font-family="Times New Roman,serif" font-size="11.00" fill="gray">Php</text>
</g>
<g id="clust6" class="cluster"><title>cluster_\Numenor\Excecao\Php\ArrayWrapper</title>
<path fill="none" stroke="gray" d="M643.728,-1330C643.728,-1330 1202.96,-1330 1202.96,-1330 1208.96,-1330 1214.96,-1336 1214.96,-1342 1214.96,-1342 1214.96,-1930 1214.96,-1930 1214.96,-1936 1208.96,-1942 1202.96,-1942 1202.96,-1942 643.728,-1942 643.728,-1942 637.728,-1942 631.728,-1936 631.728,-1930 631.728,-1930 631.728,-1342 631.728,-1342 631.728,-1336 637.728,-1330 643.728,-1330"/>
<text text-anchor="middle" x="923.346" y="-1929.2" font-family="Times New Roman,serif" font-size="11.00" fill="gray">ArrayWrapper</text>
</g>
<g id="clust7" class="cluster"><title>cluster_\Numenor\Excecao\Php\StringWrapper</title>
<path fill="none" stroke="gray" d="M964.464,-1950C964.464,-1950 1162.46,-1950 1162.46,-1950 1168.46,-1950 1174.46,-1956 1174.46,-1962 1174.46,-1962 1174.46,-2064 1174.46,-2064 1174.46,-2070 1168.46,-2076 1162.46,-2076 1162.46,-2076 964.464,-2076 964.464,-2076 958.464,-2076 952.464,-2070 952.464,-2064 952.464,-2064 952.464,-1962 952.464,-1962 952.464,-1956 958.464,-1950 964.464,-1950"/>
<text text-anchor="middle" x="1063.46" y="-2063.2" font-family="Times New Roman,serif" font-size="11.00" fill="gray">StringWrapper</text>
</g>
<g id="clust10" class="cluster"><title>cluster_\Numenor\Configuracao</title>
<path fill="none" stroke="gray" d="M1025.46,-812C1025.46,-812 1101.46,-812 1101.46,-812 1107.46,-812 1113.46,-818 1113.46,-824 1113.46,-824 1113.46,-872 1113.46,-872 1113.46,-878 1107.46,-884 1101.46,-884 1101.46,-884 1025.46,-884 1025.46,-884 1019.46,-884 1013.46,-878 1013.46,-872 1013.46,-872 1013.46,-824 1013.46,-824 1013.46,-818 1019.46,-812 1025.46,-812"/>
<text text-anchor="middle" x="1063.46" y="-871.2" font-family="Times New Roman,serif" font-size="11.00" fill="gray">Configuracao</text>
</g>
<g id="clust12" class="cluster"><title>cluster_\Numenor\Autenticacao</title>
<path fill="none" stroke="gray" d="M1031.96,-732C1031.96,-732 1094.96,-732 1094.96,-732 1100.96,-732 1106.96,-738 1106.96,-744 1106.96,-744 1106.96,-792 1106.96,-792 1106.96,-798 1100.96,-804 1094.96,-804 1094.96,-804 1031.96,-804 1031.96,-804 1025.96,-804 1019.96,-798 1019.96,-792 1019.96,-792 1019.96,-744 1019.96,-744 1019.96,-738 1025.96,-732 1031.96,-732"/>
<text text-anchor="middle" x="1063.46" y="-791.2" font-family="Times New Roman,serif" font-size="11.00" fill="gray">Autenticacao</text>
</g>
<g id="clust8" class="cluster"><title>cluster_\Numenor\Html</title>
<path fill="none" stroke="gray" d="M363.993,-382C363.993,-382 1128.46,-382 1128.46,-382 1134.46,-382 1140.46,-388 1140.46,-394 1140.46,-394 1140.46,-712 1140.46,-712 1140.46,-718 1134.46,-724 1128.46,-724 1128.46,-724 363.993,-724 363.993,-724 357.993,-724 351.993,-718 351.993,-712 351.993,-712 351.993,-394 351.993,-394 351.993,-388 357.993,-382 363.993,-382"/>
<text text-anchor="middle" x="746.228" y="-711.2" font-family="Times New Roman,serif" font-size="11.00" fill="gray">Html</text>
</g>
<g id="clust11" class="cluster"><title>cluster_\Numenor\Debug</title>
<path fill="none" stroke="gray" d="M998.464,-194C998.464,-194 1128.46,-194 1128.46,-194 1134.46,-194 1140.46,-200 1140.46,-206 1140.46,-206 1140.46,-362 1140.46,-362 1140.46,-368 1134.46,-374 1128.46,-374 1128.46,-374 998.464,-374 998.464,-374 992.464,-374 986.464,-368 986.464,-362 986.464,-362 986.464,-206 986.464,-206 986.464,-200 992.464,-194 998.464,-194"/>
<text text-anchor="middle" x="1063.46" y="-361.2" font-family="Times New Roman,serif" font-size="11.00" fill="gray">Debug</text>
</g>
<g id="clust9" class="cluster"><title>cluster_\Numenor\Php</title>
<path fill="none" stroke="gray" d="M1015.46,-60C1015.46,-60 1111.46,-60 1111.46,-60 1117.46,-60 1123.46,-66 1123.46,-72 1123.46,-72 1123.46,-174 1123.46,-174 1123.46,-180 1117.46,-186 1111.46,-186 1111.46,-186 1015.46,-186 1015.46,-186 1009.46,-186 1003.46,-180 1003.46,-174 1003.46,-174 1003.46,-72 1003.46,-72 1003.46,-66 1009.46,-60 1015.46,-60"/>
<text text-anchor="middle" x="1063.46" y="-173.2" font-family="Times New Roman,serif" font-size="11.00" fill="gray">Php</text>
</g>
<!-- \\Numenor\\Cache\\CacheMemoria -->
<g id="node1" class="node"><title>\\Numenor\\Cache\\CacheMemoria</title>
<polygon fill="none" stroke="black" points="1112.46,-2336 1014.46,-2336 1014.46,-2300 1112.46,-2300 1112.46,-2336"/>
<text text-anchor="middle" x="1063.46" y="-2315.2" font-family="Courier,monospace" font-size="11.00">CacheMemoria</text>
</g>
<!-- \\Numenor\\Cache\\CacheAbstrato -->
<g id="node2" class="node"><title>\\Numenor\\Cache\\CacheAbstrato</title>
<polygon fill="none" stroke="black" points="740.728,-2309 636.728,-2309 636.728,-2273 740.728,-2273 740.728,-2309"/>
<text text-anchor="start" x="654.728" y="-2294.2" font-family="Courier,monospace" font-size="11.00">«abstract»</text>
<text text-anchor="start" x="644.728" y="-2282.2" font-family="Courier,monospace" font-size="11.00">CacheAbstrato</text>
</g>
<!-- \\Numenor\\Cache\\CacheMemoria&#45;&gt;\\Numenor\\Cache\\CacheAbstrato -->
<g id="edge1" class="edge"><title>\\Numenor\\Cache\\CacheMemoria&#45;&gt;\\Numenor\\Cache\\CacheAbstrato</title>
<path fill="none" stroke="black" d="M1014.12,-2314.5C946.767,-2309.62 824.704,-2300.78 751.039,-2295.44"/>
<polygon fill="none" stroke="black" points="751.204,-2291.94 740.977,-2294.71 750.698,-2298.93 751.204,-2291.94"/>
</g>
<!-- \\Numenor\\Cache\\CacheDisco -->
<g id="node3" class="node"><title>\\Numenor\\Cache\\CacheDisco</title>
<polygon fill="none" stroke="black" points="1105.46,-2282 1021.46,-2282 1021.46,-2246 1105.46,-2246 1105.46,-2282"/>
<text text-anchor="middle" x="1063.46" y="-2261.2" font-family="Courier,monospace" font-size="11.00">CacheDisco</text>
</g>
<!-- \\Numenor\\Cache\\CacheDisco&#45;&gt;\\Numenor\\Cache\\CacheAbstrato -->
<g id="edge30" class="edge"><title>\\Numenor\\Cache\\CacheDisco&#45;&gt;\\Numenor\\Cache\\CacheAbstrato</title>
<path fill="none" stroke="black" d="M1021.15,-2266.99C955.618,-2271.74 827.465,-2281.02 751.145,-2286.55"/>
<polygon fill="none" stroke="black" points="750.453,-2283.09 740.732,-2287.31 750.958,-2290.07 750.453,-2283.09"/>
</g>
<!-- \\Numenor\\Excecao\\Php\\ArrayWrapper\\ExcecaoOrdemInvalida -->
<g id="node4" class="node"><title>\\Numenor\\Excecao\\Php\\ArrayWrapper\\ExcecaoOrdemInvalida</title>
<polygon fill="none" stroke="black" points="1139.46,-1860 987.464,-1860 987.464,-1824 1139.46,-1824 1139.46,-1860"/>
<text text-anchor="middle" x="1063.46" y="-1839.2" font-family="Courier,monospace" font-size="11.00">ExcecaoOrdemInvalida</text>
</g>
<!-- \\Numenor\\Excecao\\Php\\ArrayWrapper\\ExcecaoArray -->
<g id="node15" class="node"><title>\\Numenor\\Excecao\\Php\\ArrayWrapper\\ExcecaoArray</title>
<polygon fill="none" stroke="black" points="737.728,-1590 639.728,-1590 639.728,-1554 737.728,-1554 737.728,-1590"/>
<text text-anchor="start" x="654.728" y="-1575.2" font-family="Courier,monospace" font-size="11.00">«abstract»</text>
<text text-anchor="start" x="647.728" y="-1563.2" font-family="Courier,monospace" font-size="11.00">ExcecaoArray</text>
</g>
<!-- \\Numenor\\Excecao\\Php\\ArrayWrapper\\ExcecaoOrdemInvalida&#45;&gt;\\Numenor\\Excecao\\Php\\ArrayWrapper\\ExcecaoArray -->
<g id="edge2" class="edge"><title>\\Numenor\\Excecao\\Php\\ArrayWrapper\\ExcecaoOrdemInvalida&#45;&gt;\\Numenor\\Excecao\\Php\\ArrayWrapper\\ExcecaoArray</title>
<path fill="none" stroke="black" d="M987.427,-1842.42C963.458,-1839 938.396,-1831.22 919.964,-1815 842.406,-1746.76 927.175,-1660.31 847.964,-1594 820.714,-1571.19 781.101,-1565.7 748.328,-1565.91"/>
<polygon fill="none" stroke="black" points="747.864,-1562.42 737.952,-1566.16 748.035,-1569.42 747.864,-1562.42"/>
</g>
<!-- \\Numenor\\Excecao\\Php\\ArrayWrapper\\ExcecaoArrayFillTamanhoInvalido -->
<g id="node5" class="node"><title>\\Numenor\\Excecao\\Php\\ArrayWrapper\\ExcecaoArrayFillTamanhoInvalido</title>
<polygon fill="none" stroke="black" points="1176.46,-1806 950.464,-1806 950.464,-1770 1176.46,-1770 1176.46,-1806"/>
<text text-anchor="middle" x="1063.46" y="-1785.2" font-family="Courier,monospace" font-size="11.00">ExcecaoArrayFillTamanhoInvalido</text>
</g>
<!-- \\Numenor\\Excecao\\Php\\ArrayWrapper\\ExcecaoArrayFillTamanhoInvalido&#45;&gt;\\Numenor\\Excecao\\Php\\ArrayWrapper\\ExcecaoArray -->
<g id="edge4" class="edge"><title>\\Numenor\\Excecao\\Php\\ArrayWrapper\\ExcecaoArrayFillTamanhoInvalido&#45;&gt;\\Numenor\\Excecao\\Php\\ArrayWrapper\\ExcecaoArray</title>
<path fill="none" stroke="black" d="M950.361,-1777.92C939.395,-1773.75 929.003,-1768.24 919.964,-1761 856.887,-1710.46 912.263,-1642.98 847.964,-1594 819.892,-1572.62 780.638,-1567.05 748.252,-1566.87"/>
<polygon fill="none" stroke="black" points="747.961,-1563.37 738.001,-1566.98 748.039,-1570.37 747.961,-1563.37"/>
</g>
<!-- \\Numenor\\Excecao\\Php\\ArrayWrapper\\ExcecaoItemNaoEncontrado -->
<g id="node6" class="node"><title>\\Numenor\\Excecao\\Php\\ArrayWrapper\\ExcecaoItemNaoEncontrado</title>
<polygon fill="none" stroke="black" points="1152.96,-1914 973.964,-1914 973.964,-1878 1152.96,-1878 1152.96,-1914"/>
<text text-anchor="middle" x="1063.46" y="-1893.2" font-family="Courier,monospace" font-size="11.00">ExcecaoItemNaoEncontrado</text>
</g>
<!-- \\Numenor\\Excecao\\ExcecaoErroLogico -->
<g id="node26" class="node"><title>\\Numenor\\Excecao\\ExcecaoErroLogico</title>
<polygon fill="none" stroke="black" points="754.228,-2148 623.228,-2148 623.228,-2112 754.228,-2112 754.228,-2148"/>
<text text-anchor="middle" x="688.728" y="-2127.2" font-family="Courier,monospace" font-size="11.00">ExcecaoErroLogico</text>
</g>
<!-- \\Numenor\\Excecao\\Php\\ArrayWrapper\\ExcecaoItemNaoEncontrado&#45;&gt;\\Numenor\\Excecao\\ExcecaoErroLogico -->
<g id="edge6" class="edge"><title>\\Numenor\\Excecao\\Php\\ArrayWrapper\\ExcecaoItemNaoEncontrado&#45;&gt;\\Numenor\\Excecao\\ExcecaoErroLogico</title>
<path fill="none" stroke="black" d="M996.278,-1914.09C971.538,-1922.16 943.702,-1932.85 919.964,-1946 838.137,-1991.33 755.768,-2065.75 715.358,-2104.6"/>
<polygon fill="none" stroke="black" points="712.595,-2102.4 707.848,-2111.87 717.466,-2107.43 712.595,-2102.4"/>
</g>
<!-- \\Numenor\\Excecao\\Php\\ArrayWrapper\\ExcecaoArrayFlipTipoInvalido -->
<g id="node7" class="node"><title>\\Numenor\\Excecao\\Php\\ArrayWrapper\\ExcecaoArrayFlipTipoInvalido</title>
<polygon fill="none" stroke="black" points="1166.46,-1752 960.464,-1752 960.464,-1716 1166.46,-1716 1166.46,-1752"/>
<text text-anchor="middle" x="1063.46" y="-1731.2" font-family="Courier,monospace" font-size="11.00">ExcecaoArrayFlipTipoInvalido</text>
</g>
<!-- \\Numenor\\Excecao\\Php\\ArrayWrapper\\ExcecaoArrayFlipTipoInvalido&#45;&gt;\\Numenor\\Excecao\\Php\\ArrayWrapper\\ExcecaoArray -->
<g id="edge8" class="edge"><title>\\Numenor\\Excecao\\Php\\ArrayWrapper\\ExcecaoArrayFlipTipoInvalido&#45;&gt;\\Numenor\\Excecao\\Php\\ArrayWrapper\\ExcecaoArray</title>
<path fill="none" stroke="black" d="M960.293,-1725.23C945.983,-1721.06 932.056,-1715.19 919.964,-1707 870.66,-1673.6 898.074,-1626.18 847.964,-1594 818.587,-1575.14 779.842,-1569.5 748.044,-1568.65"/>
<polygon fill="none" stroke="black" points="748.026,-1565.15 737.985,-1568.53 747.943,-1572.15 748.026,-1565.15"/>
</g>
<!-- \\Numenor\\Excecao\\Php\\ArrayWrapper\\ExcecaoChaveInexistente -->
<g id="node8" class="node"><title>\\Numenor\\Excecao\\Php\\ArrayWrapper\\ExcecaoChaveInexistente</title>
<polygon fill="none" stroke="black" points="1149.46,-1698 977.464,-1698 977.464,-1662 1149.46,-1662 1149.46,-1698"/>
<text text-anchor="middle" x="1063.46" y="-1677.2" font-family="Courier,monospace" font-size="11.00">ExcecaoChaveInexistente</text>
</g>
<!-- \\Numenor\\Excecao\\Php\\ArrayWrapper\\ExcecaoChaveInexistente&#45;&gt;\\Numenor\\Excecao\\Php\\ArrayWrapper\\ExcecaoArray -->
<g id="edge11" class="edge"><title>\\Numenor\\Excecao\\Php\\ArrayWrapper\\ExcecaoChaveInexistente&#45;&gt;\\Numenor\\Excecao\\Php\\ArrayWrapper\\ExcecaoArray</title>
<path fill="none" stroke="black" d="M977.4,-1671.04C957.94,-1667.06 937.76,-1661.31 919.964,-1653 882.478,-1635.5 885.869,-1610.58 847.964,-1594 816.686,-1580.32 778.906,-1574.71 748.106,-1572.57"/>
<polygon fill="none" stroke="black" points="748.137,-1569.07 737.948,-1571.97 747.725,-1576.05 748.137,-1569.07"/>
</g>
<!-- \\Numenor\\Excecao\\Php\\ArrayWrapper\\ExcecaoArrayFilterFlagInvalida -->
<g id="node9" class="node"><title>\\Numenor\\Excecao\\Php\\ArrayWrapper\\ExcecaoArrayFilterFlagInvalida</title>
<polygon fill="none" stroke="black" points="1172.96,-1644 953.964,-1644 953.964,-1608 1172.96,-1608 1172.96,-1644"/>
<text text-anchor="middle" x="1063.46" y="-1623.2" font-family="Courier,monospace" font-size="11.00">ExcecaoArrayFilterFlagInvalida</text>
</g>
<!-- \\Numenor\\Excecao\\Php\\ArrayWrapper\\ExcecaoArrayFilterFlagInvalida&#45;&gt;\\Numenor\\Excecao\\Php\\ArrayWrapper\\ExcecaoArray -->
<g id="edge19" class="edge"><title>\\Numenor\\Excecao\\Php\\ArrayWrapper\\ExcecaoArrayFilterFlagInvalida&#45;&gt;\\Numenor\\Excecao\\Php\\ArrayWrapper\\ExcecaoArray</title>
<path fill="none" stroke="black" d="M953.924,-1609.59C920.001,-1604.52 882.436,-1598.97 847.964,-1594 814.935,-1589.24 778.001,-1584.1 748.128,-1579.98"/>
<polygon fill="none" stroke="black" points="748.257,-1576.46 737.874,-1578.57 747.303,-1583.4 748.257,-1576.46"/>
</g>
<!-- \\Numenor\\Excecao\\Php\\ArrayWrapper\\ExcecaoChaveInvalida -->
<g id="node10" class="node"><title>\\Numenor\\Excecao\\Php\\ArrayWrapper\\ExcecaoChaveInvalida</title>
<polygon fill="none" stroke="black" points="1139.46,-1590 987.464,-1590 987.464,-1554 1139.46,-1554 1139.46,-1590"/>
<text text-anchor="middle" x="1063.46" y="-1569.2" font-family="Courier,monospace" font-size="11.00">ExcecaoChaveInvalida</text>
</g>
<!-- \\Numenor\\Excecao\\Php\\ArrayWrapper\\ExcecaoChaveInvalida&#45;&gt;\\Numenor\\Excecao\\Php\\ArrayWrapper\\ExcecaoArray -->
<g id="edge20" class="edge"><title>\\Numenor\\Excecao\\Php\\ArrayWrapper\\ExcecaoChaveInvalida&#45;&gt;\\Numenor\\Excecao\\Php\\ArrayWrapper\\ExcecaoArray</title>
<path fill="none" stroke="black" d="M987.036,-1572C916.509,-1572 812.655,-1572 748.209,-1572"/>
<polygon fill="none" stroke="black" points="747.825,-1568.5 737.825,-1572 747.825,-1575.5 747.825,-1568.5"/>
</g>
<!-- \\Numenor\\Excecao\\Php\\ArrayWrapper\\ExcecaoArrayCombineTamanhosIncompativeis -->
<g id="node11" class="node"><title>\\Numenor\\Excecao\\Php\\ArrayWrapper\\ExcecaoArrayCombineTamanhosIncompativeis</title>
<polygon fill="none" stroke="black" points="1206.96,-1536 919.964,-1536 919.964,-1500 1206.96,-1500 1206.96,-1536"/>
<text text-anchor="middle" x="1063.46" y="-1515.2" font-family="Courier,monospace" font-size="11.00">ExcecaoArrayCombineTamanhosIncompativeis</text>
</g>
<!-- \\Numenor\\Excecao\\Php\\ArrayWrapper\\ExcecaoArrayCombineTamanhosIncompativeis&#45;&gt;\\Numenor\\Excecao\\Php\\ArrayWrapper\\ExcecaoArray -->
<g id="edge23" class="edge"><title>\\Numenor\\Excecao\\Php\\ArrayWrapper\\ExcecaoArrayCombineTamanhosIncompativeis&#45;&gt;\\Numenor\\Excecao\\Php\\ArrayWrapper\\ExcecaoArray</title>
<path fill="none" stroke="black" d="M943.083,-1536.02C912.116,-1540.64 878.802,-1545.56 847.964,-1550 814.935,-1554.76 778.001,-1559.9 748.128,-1564.02"/>
<polygon fill="none" stroke="black" points="747.303,-1560.6 737.874,-1565.43 748.257,-1567.54 747.303,-1560.6"/>
</g>
<!-- \\Numenor\\Excecao\\Php\\ArrayWrapper\\ExcecaoArrayFillIndiceInvalido -->
<g id="node12" class="node"><title>\\Numenor\\Excecao\\Php\\ArrayWrapper\\ExcecaoArrayFillIndiceInvalido</title>
<polygon fill="none" stroke="black" points="1172.96,-1482 953.964,-1482 953.964,-1446 1172.96,-1446 1172.96,-1482"/>
<text text-anchor="middle" x="1063.46" y="-1461.2" font-family="Courier,monospace" font-size="11.00">ExcecaoArrayFillIndiceInvalido</text>
</g>
<!-- \\Numenor\\Excecao\\Php\\ArrayWrapper\\ExcecaoArrayFillIndiceInvalido&#45;&gt;\\Numenor\\Excecao\\Php\\ArrayWrapper\\ExcecaoArray -->
<g id="edge26" class="edge"><title>\\Numenor\\Excecao\\Php\\ArrayWrapper\\ExcecaoArrayFillIndiceInvalido&#45;&gt;\\Numenor\\Excecao\\Php\\ArrayWrapper\\ExcecaoArray</title>
<path fill="none" stroke="black" d="M953.676,-1478.7C942.03,-1482 930.573,-1486.05 919.964,-1491 882.478,-1508.5 885.869,-1533.42 847.964,-1550 816.686,-1563.68 778.906,-1569.29 748.106,-1571.43"/>
<polygon fill="none" stroke="black" points="747.725,-1567.95 737.948,-1572.03 748.137,-1574.93 747.725,-1567.95"/>
</g>
<!-- \\Numenor\\Excecao\\Php\\ArrayWrapper\\ExcecaoArrayPadTamanhoInvalido -->
<g id="node13" class="node"><title>\\Numenor\\Excecao\\Php\\ArrayWrapper\\ExcecaoArrayPadTamanhoInvalido</title>
<polygon fill="none" stroke="black" points="1172.96,-1428 953.964,-1428 953.964,-1392 1172.96,-1392 1172.96,-1428"/>
<text text-anchor="middle" x="1063.46" y="-1407.2" font-family="Courier,monospace" font-size="11.00">ExcecaoArrayPadTamanhoInvalido</text>
</g>
<!-- \\Numenor\\Excecao\\Php\\ArrayWrapper\\ExcecaoArrayPadTamanhoInvalido&#45;&gt;\\Numenor\\Excecao\\Php\\ArrayWrapper\\ExcecaoArray -->
<g id="edge27" class="edge"><title>\\Numenor\\Excecao\\Php\\ArrayWrapper\\ExcecaoArrayPadTamanhoInvalido&#45;&gt;\\Numenor\\Excecao\\Php\\ArrayWrapper\\ExcecaoArray</title>
<path fill="none" stroke="black" d="M953.665,-1420.84C941.705,-1424.82 930.179,-1430.08 919.964,-1437 870.66,-1470.4 898.074,-1517.82 847.964,-1550 818.587,-1568.86 779.842,-1574.5 748.044,-1575.35"/>
<polygon fill="none" stroke="black" points="747.943,-1571.85 737.985,-1575.47 748.026,-1578.85 747.943,-1571.85"/>
</g>
<!-- \\Numenor\\Excecao\\Php\\ArrayWrapper\\ExcecaoTipoOrdemInvalida -->
<g id="node14" class="node"><title>\\Numenor\\Excecao\\Php\\ArrayWrapper\\ExcecaoTipoOrdemInvalida</title>
<polygon fill="none" stroke="black" points="1152.96,-1374 973.964,-1374 973.964,-1338 1152.96,-1338 1152.96,-1374"/>
<text text-anchor="middle" x="1063.46" y="-1353.2" font-family="Courier,monospace" font-size="11.00">ExcecaoTipoOrdemInvalida</text>
</g>
<!-- \\Numenor\\Excecao\\Php\\ArrayWrapper\\ExcecaoTipoOrdemInvalida&#45;&gt;\\Numenor\\Excecao\\Php\\ArrayWrapper\\ExcecaoArray -->
<g id="edge29" class="edge"><title>\\Numenor\\Excecao\\Php\\ArrayWrapper\\ExcecaoTipoOrdemInvalida&#45;&gt;\\Numenor\\Excecao\\Php\\ArrayWrapper\\ExcecaoArray</title>
<path fill="none" stroke="black" d="M973.82,-1359.2C954.507,-1363.42 935.291,-1370.72 919.964,-1383 856.887,-1433.54 912.263,-1501.02 847.964,-1550 819.892,-1571.38 780.638,-1576.95 748.252,-1577.13"/>
<polygon fill="none" stroke="black" points="748.039,-1573.63 738.001,-1577.02 747.961,-1580.63 748.039,-1573.63"/>
</g>
<!-- \\Numenor\\Excecao\\ExcecaoErroUso -->
<g id="node24" class="node"><title>\\Numenor\\Excecao\\ExcecaoErroUso</title>
<polygon fill="none" stroke="black" points="457.493,-1179 346.493,-1179 346.493,-1143 457.493,-1143 457.493,-1179"/>
<text text-anchor="middle" x="401.993" y="-1158.2" font-family="Courier,monospace" font-size="11.00">ExcecaoErroUso</text>
</g>
<!-- \\Numenor\\Excecao\\Php\\ArrayWrapper\\ExcecaoArray&#45;&gt;\\Numenor\\Excecao\\ExcecaoErroUso -->
<g id="edge31" class="edge"><title>\\Numenor\\Excecao\\Php\\ArrayWrapper\\ExcecaoArray&#45;&gt;\\Numenor\\Excecao\\ExcecaoErroUso</title>
<path fill="none" stroke="black" d="M639.501,-1577.84C605.068,-1579.29 559.685,-1575.29 529.493,-1550 417.642,-1456.31 403.846,-1262.45 402.758,-1189.55"/>
<polygon fill="none" stroke="black" points="406.257,-1189.28 402.68,-1179.31 399.257,-1189.34 406.257,-1189.28"/>
</g>
<!-- \\Numenor\\Excecao\\Php\\StringWrapper\\ExcecaoDecodificacaoInvalida -->
<g id="node16" class="node"><title>\\Numenor\\Excecao\\Php\\StringWrapper\\ExcecaoDecodificacaoInvalida</title>
<polygon fill="none" stroke="black" points="1166.46,-2048 960.464,-2048 960.464,-2012 1166.46,-2012 1166.46,-2048"/>
<text text-anchor="middle" x="1063.46" y="-2027.2" font-family="Courier,monospace" font-size="11.00">ExcecaoDecodificacaoInvalida</text>
</g>
<!-- \\Numenor\\Excecao\\ExcecaoErroSistema -->
<g id="node29" class="node"><title>\\Numenor\\Excecao\\ExcecaoErroSistema</title>
<polygon fill="none" stroke="black" points="757.728,-2202 619.728,-2202 619.728,-2166 757.728,-2166 757.728,-2202"/>
<text text-anchor="middle" x="688.728" y="-2181.2" font-family="Courier,monospace" font-size="11.00">ExcecaoErroSistema</text>
</g>
<!-- \\Numenor\\Excecao\\Php\\StringWrapper\\ExcecaoDecodificacaoInvalida&#45;&gt;\\Numenor\\Excecao\\ExcecaoErroSistema -->
<g id="edge3" class="edge"><title>\\Numenor\\Excecao\\Php\\StringWrapper\\ExcecaoDecodificacaoInvalida&#45;&gt;\\Numenor\\Excecao\\ExcecaoErroSistema</title>
<path fill="none" stroke="black" d="M1038.54,-2048.2C1000.4,-2076.25 922.515,-2129.64 847.964,-2157 822.674,-2166.28 793.921,-2172.41 767.926,-2176.43"/>
<polygon fill="none" stroke="black" points="767.121,-2173.01 757.735,-2177.92 768.137,-2179.94 767.121,-2173.01"/>
</g>
<!-- \\Numenor\\Excecao\\Php\\StringWrapper\\ExcecaoHashInvalido -->
<g id="node17" class="node"><title>\\Numenor\\Excecao\\Php\\StringWrapper\\ExcecaoHashInvalido</title>
<polygon fill="none" stroke="black" points="1135.96,-1994 990.964,-1994 990.964,-1958 1135.96,-1958 1135.96,-1994"/>
<text text-anchor="middle" x="1063.46" y="-1973.2" font-family="Courier,monospace" font-size="11.00">ExcecaoHashInvalido</text>
</g>
<!-- \\Numenor\\Excecao\\Php\\StringWrapper\\ExcecaoHashInvalido&#45;&gt;\\Numenor\\Excecao\\ExcecaoErroSistema -->
<g id="edge18" class="edge"><title>\\Numenor\\Excecao\\Php\\StringWrapper\\ExcecaoHashInvalido&#45;&gt;\\Numenor\\Excecao\\ExcecaoErroSistema</title>
<path fill="none" stroke="black" d="M990.728,-1976.6C966.206,-1979.98 939.95,-1987.48 919.964,-2003 860.292,-2049.35 908.056,-2111.2 847.964,-2157 825.361,-2174.23 795.657,-2182.01 768.096,-2185.15"/>
<polygon fill="none" stroke="black" points="767.68,-2181.67 758.056,-2186.1 768.342,-2188.64 767.68,-2181.67"/>
</g>
<!-- \\Numenor\\Excecao\\ExcecaoAssetDuplicado -->
<g id="node18" class="node"><title>\\Numenor\\Excecao\\ExcecaoAssetDuplicado</title>
<polygon fill="none" stroke="black" points="767.728,-1314 609.728,-1314 609.728,-1278 767.728,-1278 767.728,-1314"/>
<text text-anchor="middle" x="688.728" y="-1293.2" font-family="Courier,monospace" font-size="11.00">ExcecaoAssetDuplicado</text>
</g>
<!-- \\Numenor\\Excecao\\ExcecaoAssetDuplicado&#45;&gt;\\Numenor\\Excecao\\ExcecaoErroUso -->
<g id="edge7" class="edge"><title>\\Numenor\\Excecao\\ExcecaoAssetDuplicado&#45;&gt;\\Numenor\\Excecao\\ExcecaoErroUso</title>
<path fill="none" stroke="black" d="M609.571,-1291.07C583.213,-1287.25 554.227,-1280.58 529.493,-1269 487.722,-1249.45 448.834,-1212.25 425.489,-1187.04"/>
<polygon fill="none" stroke="black" points="427.786,-1184.37 418.472,-1179.32 422.604,-1189.07 427.786,-1184.37"/>
</g>
<!-- \\Numenor\\Excecao\\ExcecaoAbstrata -->
<g id="node19" class="node"><title>\\Numenor\\Excecao\\ExcecaoAbstrata</title>
<polygon fill="none" stroke="black" points="274.493,-1690 156.493,-1690 156.493,-1654 274.493,-1654 274.493,-1690"/>
<text text-anchor="start" x="181.493" y="-1675.2" font-family="Courier,monospace" font-size="11.00">«abstract»</text>
<text text-anchor="start" x="164.493" y="-1663.2" font-family="Courier,monospace" font-size="11.00">ExcecaoAbstrata</text>
</g>
<!-- \\Exception -->
<g id="node47" class="node"><title>\\Exception</title>
<ellipse fill="none" stroke="black" cx="42.2463" cy="-1672" rx="42.4939" ry="18"/>
<text text-anchor="middle" x="42.2463" y="-1668.3" font-family="Times New Roman,serif" font-size="14.00" fill="gray">xception</text>
</g>
<!-- \\Numenor\\Excecao\\ExcecaoAbstrata&#45;&gt;\\Exception -->
<g id="edge9" class="edge"><title>\\Numenor\\Excecao\\ExcecaoAbstrata&#45;&gt;\\Exception</title>
<path fill="none" stroke="black" d="M156.038,-1672C136.162,-1672 114.108,-1672 94.8105,-1672"/>
<polygon fill="none" stroke="black" points="94.7019,-1668.5 84.7019,-1672 94.7019,-1675.5 94.7019,-1668.5"/>
</g>
<!-- \\Numenor\\Excecao\\ExcecaoAssetNaoExiste -->
<g id="node20" class="node"><title>\\Numenor\\Excecao\\ExcecaoAssetNaoExiste</title>
<polygon fill="none" stroke="black" points="767.728,-1260 609.728,-1260 609.728,-1224 767.728,-1224 767.728,-1260"/>
<text text-anchor="middle" x="688.728" y="-1239.2" font-family="Courier,monospace" font-size="11.00">ExcecaoAssetNaoExiste</text>
</g>
<!-- \\Numenor\\Excecao\\ExcecaoAssetNaoExiste&#45;&gt;\\Numenor\\Excecao\\ExcecaoErroUso -->
<g id="edge10" class="edge"><title>\\Numenor\\Excecao\\ExcecaoAssetNaoExiste&#45;&gt;\\Numenor\\Excecao\\ExcecaoErroUso</title>
<path fill="none" stroke="black" d="M609.636,-1232.39C583.826,-1228.24 555.158,-1222.55 529.493,-1215 501.686,-1206.82 471.808,-1194.25 448.074,-1183.3"/>
<polygon fill="none" stroke="black" points="449.508,-1180.11 438.967,-1179.04 446.541,-1186.45 449.508,-1180.11"/>
</g>
<!-- \\Numenor\\Excecao\\ExcecaoArquivoConfiguracaoInvalido -->
<g id="node21" class="node"><title>\\Numenor\\Excecao\\ExcecaoArquivoConfiguracaoInvalido</title>
<polygon fill="none" stroke="black" points="811.728,-1206 565.728,-1206 565.728,-1170 811.728,-1170 811.728,-1206"/>
<text text-anchor="middle" x="688.728" y="-1185.2" font-family="Courier,monospace" font-size="11.00">ExcecaoArquivoConfiguracaoInvalido</text>
</g>
<!-- \\Numenor\\Excecao\\ExcecaoArquivoConfiguracaoInvalido&#45;&gt;\\Numenor\\Excecao\\ExcecaoErroUso -->
<g id="edge12" class="edge"><title>\\Numenor\\Excecao\\ExcecaoArquivoConfiguracaoInvalido&#45;&gt;\\Numenor\\Excecao\\ExcecaoErroUso</title>
<path fill="none" stroke="black" d="M565.322,-1176.39C531.749,-1173.21 496.665,-1169.88 467.739,-1167.14"/>
<polygon fill="none" stroke="black" points="468.062,-1163.65 457.777,-1166.19 467.401,-1170.62 468.062,-1163.65"/>
</g>
<!-- \\Numenor\\Excecao\\ExcecaoCacheDiscoDirNaoDefinido -->
<g id="node22" class="node"><title>\\Numenor\\Excecao\\ExcecaoCacheDiscoDirNaoDefinido</title>
<polygon fill="none" stroke="black" points="801.728,-1152 575.728,-1152 575.728,-1116 801.728,-1116 801.728,-1152"/>
<text text-anchor="middle" x="688.728" y="-1131.2" font-family="Courier,monospace" font-size="11.00">ExcecaoCacheDiscoDirNaoDefinido</text>
</g>
<!-- \\Numenor\\Excecao\\ExcecaoCacheDiscoDirNaoDefinido&#45;&gt;\\Numenor\\Excecao\\ExcecaoErroUso -->
<g id="edge15" class="edge"><title>\\Numenor\\Excecao\\ExcecaoCacheDiscoDirNaoDefinido&#45;&gt;\\Numenor\\Excecao\\ExcecaoErroUso</title>
<path fill="none" stroke="black" d="M575.602,-1144.63C539.091,-1148.09 499.798,-1151.82 467.939,-1154.84"/>
<polygon fill="none" stroke="black" points="467.494,-1151.37 457.869,-1155.8 468.155,-1158.34 467.494,-1151.37"/>
</g>
<!-- \\Numenor\\Excecao\\ExcecaoAlgoritmoHashInvalido -->
<g id="node23" class="node"><title>\\Numenor\\Excecao\\ExcecaoAlgoritmoHashInvalido</title>
<polygon fill="none" stroke="black" points="791.728,-1098 585.728,-1098 585.728,-1062 791.728,-1062 791.728,-1098"/>
<text text-anchor="middle" x="688.728" y="-1077.2" font-family="Courier,monospace" font-size="11.00">ExcecaoAlgoritmoHashInvalido</text>
</g>
<!-- \\Numenor\\Excecao\\ExcecaoAlgoritmoHashInvalido&#45;&gt;\\Numenor\\Excecao\\ExcecaoErroUso -->
<g id="edge16" class="edge"><title>\\Numenor\\Excecao\\ExcecaoAlgoritmoHashInvalido&#45;&gt;\\Numenor\\Excecao\\ExcecaoErroUso</title>
<path fill="none" stroke="black" d="M585.625,-1093.8C566.78,-1097.37 547.405,-1101.73 529.493,-1107 501.686,-1115.18 471.808,-1127.75 448.074,-1138.7"/>
<polygon fill="none" stroke="black" points="446.541,-1135.55 438.967,-1142.96 449.508,-1141.89 446.541,-1135.55"/>
</g>
<!-- \\Numenor\\Excecao\\ExcecaoErroUso&#45;&gt;\\Numenor\\Excecao\\ExcecaoAbstrata -->
<g id="edge17" class="edge"><title>\\Numenor\\Excecao\\ExcecaoErroUso&#45;&gt;\\Numenor\\Excecao\\ExcecaoAbstrata</title>
<path fill="none" stroke="black" d="M394.426,-1179.19C366.8,-1255.7 259.899,-1551.78 226.513,-1644.25"/>
<polygon fill="none" stroke="black" points="223.18,-1643.17 223.076,-1653.77 229.764,-1645.55 223.18,-1643.17"/>
</g>
<!-- \\Numenor\\Excecao\\ExcecaoChecksumSemChave -->
<g id="node25" class="node"><title>\\Numenor\\Excecao\\ExcecaoChecksumSemChave</title>
<polygon fill="none" stroke="black" points="774.728,-1044 602.728,-1044 602.728,-1008 774.728,-1008 774.728,-1044"/>
<text text-anchor="middle" x="688.728" y="-1023.2" font-family="Courier,monospace" font-size="11.00">ExcecaoChecksumSemChave</text>
</g>
<!-- \\Numenor\\Excecao\\ExcecaoChecksumSemChave&#45;&gt;\\Numenor\\Excecao\\ExcecaoErroUso -->
<g id="edge21" class="edge"><title>\\Numenor\\Excecao\\ExcecaoChecksumSemChave&#45;&gt;\\Numenor\\Excecao\\ExcecaoErroUso</title>
<path fill="none" stroke="black" d="M602.658,-1031.99C578.217,-1035.94 552.082,-1042.42 529.493,-1053 487.722,-1072.55 448.834,-1109.75 425.489,-1134.96"/>
<polygon fill="none" stroke="black" points="422.604,-1132.93 418.472,-1142.68 427.786,-1137.63 422.604,-1132.93"/>
</g>
<!-- \\Numenor\\Excecao\\ExcecaoErroLogico&#45;&gt;\\Numenor\\Excecao\\ExcecaoAbstrata -->
<g id="edge25" class="edge"><title>\\Numenor\\Excecao\\ExcecaoErroLogico&#45;&gt;\\Numenor\\Excecao\\ExcecaoAbstrata</title>
<path fill="none" stroke="black" d="M400.993,-2157C243.433,-2048.78 220.31,-1786.79 217.01,-1700.26"/>
<polygon fill="none" stroke="black" points="220.504,-1700.03 216.686,-1690.15 213.508,-1700.25 220.504,-1700.03"/>
<path fill="none" stroke="black" d="M622.927,-2140.51C544.505,-2152.55 420.695,-2169.16 402.993,-2157"/>
</g>
<!-- \\Numenor\\Excecao\\ExcecaoCacheDiscoDirEscrita -->
<g id="node27" class="node"><title>\\Numenor\\Excecao\\ExcecaoCacheDiscoDirEscrita</title>
<polygon fill="none" stroke="black" points="788.228,-990 589.228,-990 589.228,-954 788.228,-954 788.228,-990"/>
<text text-anchor="middle" x="688.728" y="-969.2" font-family="Courier,monospace" font-size="11.00">ExcecaoCacheDiscoDirEscrita</text>
</g>
<!-- \\Numenor\\Excecao\\ExcecaoCacheDiscoDirEscrita&#45;&gt;\\Numenor\\Excecao\\ExcecaoErroUso -->
<g id="edge28" class="edge"><title>\\Numenor\\Excecao\\ExcecaoCacheDiscoDirEscrita&#45;&gt;\\Numenor\\Excecao\\ExcecaoErroUso</title>
<path fill="none" stroke="black" d="M589.19,-977.332C568.448,-981.527 547.437,-988.282 529.493,-999 475.217,-1031.42 435.478,-1096.56 416.151,-1133.6"/>
<polygon fill="none" stroke="black" points="412.878,-1132.31 411.463,-1142.81 419.117,-1135.49 412.878,-1132.31"/>
</g>
<!-- \\Numenor\\Excecao\\ExcecaoChecksumChaveInvalida -->
<g id="node28" class="node"><title>\\Numenor\\Excecao\\ExcecaoChecksumChaveInvalida</title>
<polygon fill="none" stroke="black" points="791.728,-936 585.728,-936 585.728,-900 791.728,-900 791.728,-936"/>
<text text-anchor="middle" x="688.728" y="-915.2" font-family="Courier,monospace" font-size="11.00">ExcecaoChecksumChaveInvalida</text>
</g>
<!-- \\Numenor\\Excecao\\ExcecaoChecksumChaveInvalida&#45;&gt;\\Numenor\\Excecao\\ExcecaoErroUso -->
<g id="edge34" class="edge"><title>\\Numenor\\Excecao\\ExcecaoChecksumChaveInvalida&#45;&gt;\\Numenor\\Excecao\\ExcecaoErroUso</title>
<path fill="none" stroke="black" d="M585.58,-922.107C565.733,-926.459 545.996,-933.588 529.493,-945 462.366,-991.418 425.65,-1085.97 410.851,-1133.06"/>
<polygon fill="none" stroke="black" points="407.423,-1132.3 407.866,-1142.89 414.121,-1134.34 407.423,-1132.3"/>
</g>
<!-- \\Numenor\\Excecao\\ExcecaoErroSistema&#45;&gt;\\Numenor\\Excecao\\ExcecaoAbstrata -->
<g id="edge35" class="edge"><title>\\Numenor\\Excecao\\ExcecaoErroSistema&#45;&gt;\\Numenor\\Excecao\\ExcecaoAbstrata</title>
<path fill="none" stroke="black" d="M619.663,-2195.03C557.728,-2201.28 466.537,-2200.65 402.993,-2157"/>
</g>
<!-- \\Numenor\\Html\\JavascriptRemoto -->
<g id="node30" class="node"><title>\\Numenor\\Html\\JavascriptRemoto</title>
<polygon fill="none" stroke="black" points="1125.96,-696 1000.96,-696 1000.96,-660 1125.96,-660 1125.96,-696"/>
<text text-anchor="middle" x="1063.46" y="-675.2" font-family="Courier,monospace" font-size="11.00">JavascriptRemoto</text>
</g>
<!-- \\Numenor\\Html\\Javascript -->
<g id="node37" class="node"><title>\\Numenor\\Html\\Javascript</title>
<polygon fill="none" stroke="black" points="730.728,-689 646.728,-689 646.728,-653 730.728,-653 730.728,-689"/>
<text text-anchor="middle" x="688.728" y="-668.2" font-family="Courier,monospace" font-size="11.00">Javascript</text>
</g>
<!-- \\Numenor\\Html\\JavascriptRemoto&#45;&gt;\\Numenor\\Html\\Javascript -->
<g id="edge5" class="edge"><title>\\Numenor\\Html\\JavascriptRemoto&#45;&gt;\\Numenor\\Html\\Javascript</title>
<path fill="none" stroke="black" d="M1000.91,-676.844C928.243,-675.479 808.709,-673.234 740.893,-671.961"/>
<polygon fill="none" stroke="black" points="740.935,-668.461 730.871,-671.773 740.804,-675.46 740.935,-668.461"/>
</g>
<!-- \\Numenor\\Html\\Asset -->
<g id="node31" class="node"><title>\\Numenor\\Html\\Asset</title>
<polygon fill="none" stroke="black" points="443.993,-615 359.993,-615 359.993,-579 443.993,-579 443.993,-615"/>
<text text-anchor="start" x="367.993" y="-600.2" font-family="Courier,monospace" font-size="11.00">«abstract»</text>
<text text-anchor="start" x="384.993" y="-588.2" font-family="Courier,monospace" font-size="11.00">Asset</text>
</g>
<!-- \\Numenor\\Html\\ControleJavascript -->
<g id="node32" class="node"><title>\\Numenor\\Html\\ControleJavascript</title>
<polygon fill="none" stroke="black" points="1132.46,-642 994.464,-642 994.464,-606 1132.46,-606 1132.46,-642"/>
<text text-anchor="middle" x="1063.46" y="-621.2" font-family="Courier,monospace" font-size="11.00">ControleJavascript</text>
</g>
<!-- \\Numenor\\Html\\Controle -->
<g id="node34" class="node"><title>\\Numenor\\Html\\Controle</title>
<polygon fill="none" stroke="black" points="730.728,-622 646.728,-622 646.728,-586 730.728,-586 730.728,-622"/>
<text text-anchor="start" x="654.728" y="-607.2" font-family="Courier,monospace" font-size="11.00">«abstract»</text>
<text text-anchor="start" x="661.228" y="-595.2" font-family="Courier,monospace" font-size="11.00">Controle</text>
</g>
<!-- \\Numenor\\Html\\ControleJavascript&#45;&gt;\\Numenor\\Html\\Controle -->
<g id="edge13" class="edge"><title>\\Numenor\\Html\\ControleJavascript&#45;&gt;\\Numenor\\Html\\Controle</title>
<path fill="none" stroke="black" d="M994.099,-620.332C920.984,-616.409 806.706,-610.277 740.959,-606.749"/>
<polygon fill="none" stroke="black" points="741.011,-603.247 730.838,-606.206 740.636,-610.237 741.011,-603.247"/>
</g>
<!-- \\Numenor\\Html\\ControleCss -->
<g id="node33" class="node"><title>\\Numenor\\Html\\ControleCss</title>
<polygon fill="none" stroke="black" points="1108.96,-588 1017.96,-588 1017.96,-552 1108.96,-552 1108.96,-588"/>
<text text-anchor="middle" x="1063.46" y="-567.2" font-family="Courier,monospace" font-size="11.00">ControleCss</text>
</g>
<!-- \\Numenor\\Html\\ControleCss&#45;&gt;\\Numenor\\Html\\Controle -->
<g id="edge14" class="edge"><title>\\Numenor\\Html\\ControleCss&#45;&gt;\\Numenor\\Html\\Controle</title>
<path fill="none" stroke="black" d="M1017.87,-574.067C948.439,-580.401 814.84,-592.588 741.338,-599.292"/>
<polygon fill="none" stroke="black" points="740.585,-595.846 730.944,-600.24 741.221,-602.817 740.585,-595.846"/>
</g>
<!-- \\Numenor\\Html\\CssRemoto -->
<g id="node35" class="node"><title>\\Numenor\\Html\\CssRemoto</title>
<polygon fill="none" stroke="black" points="1101.96,-534 1024.96,-534 1024.96,-498 1101.96,-498 1101.96,-534"/>
<text text-anchor="middle" x="1063.46" y="-513.2" font-family="Courier,monospace" font-size="11.00">CssRemoto</text>
</g>
<!-- \\Numenor\\Html\\Css -->
<g id="node36" class="node"><title>\\Numenor\\Html\\Css</title>
<polygon fill="none" stroke="black" points="715.728,-541 661.728,-541 661.728,-505 715.728,-505 715.728,-541"/>
<text text-anchor="middle" x="688.728" y="-520.2" font-family="Courier,monospace" font-size="11.00">Css</text>
</g>
<!-- \\Numenor\\Html\\CssRemoto&#45;&gt;\\Numenor\\Html\\Css -->
<g id="edge22" class="edge"><title>\\Numenor\\Html\\CssRemoto&#45;&gt;\\Numenor\\Html\\Css</title>
<path fill="none" stroke="black" d="M1024.67,-516.71C952.672,-518.062 796.713,-520.991 725.951,-522.32"/>
<polygon fill="none" stroke="black" points="725.682,-518.824 715.75,-522.511 725.814,-525.823 725.682,-518.824"/>
</g>
<!-- \\Numenor\\Html\\Css&#45;&gt;\\Numenor\\Html\\Asset -->
<g id="edge24" class="edge"><title>\\Numenor\\Html\\Css&#45;&gt;\\Numenor\\Html\\Asset</title>
<path fill="none" stroke="black" d="M661.705,-529.763C614.758,-541.964 515.115,-567.861 454.109,-583.715"/>
<polygon fill="none" stroke="black" points="453.093,-580.363 444.295,-586.266 454.854,-587.138 453.093,-580.363"/>
</g>
<!-- \\Numenor\\Html\\Javascript&#45;&gt;\\Numenor\\Html\\Asset -->
<g id="edge32" class="edge"><title>\\Numenor\\Html\\Javascript&#45;&gt;\\Numenor\\Html\\Asset</title>
<path fill="none" stroke="black" d="M646.703,-660.808C614.734,-652.823 569.25,-641.367 529.493,-631 504.669,-624.527 477.16,-617.157 454.151,-610.937"/>
<polygon fill="none" stroke="black" points="454.823,-607.493 444.256,-608.258 452.994,-614.25 454.823,-607.493"/>
</g>
<!-- \\Numenor\\Html\\ConversorCaminho -->
<g id="node38" class="node"><title>\\Numenor\\Html\\ConversorCaminho</title>
<polygon fill="none" stroke="black" points="1125.96,-480 1000.96,-480 1000.96,-444 1125.96,-444 1125.96,-480"/>
<text text-anchor="middle" x="1063.46" y="-459.2" font-family="Courier,monospace" font-size="11.00">ConversorCaminho</text>
</g>
<!-- \\MatthiasMullie\\PathConverter\\Converter -->
<g id="node48" class="node"><title>\\MatthiasMullie\\PathConverter\\Converter</title>
<ellipse fill="none" stroke="black" cx="688.728" cy="-18" rx="159.472" ry="18"/>
<text text-anchor="middle" x="688.728" y="-14.3" font-family="Times New Roman,serif" font-size="14.00" fill="gray">\MatthiasMullie\PathConverter\Converter</text>
</g>
<!-- \\Numenor\\Html\\ConversorCaminho&#45;&gt;\\MatthiasMullie\\PathConverter\\Converter -->
<g id="edge33" class="edge"><title>\\Numenor\\Html\\ConversorCaminho&#45;&gt;\\MatthiasMullie\\PathConverter\\Converter</title>
<path fill="none" stroke="black" d="M1000.67,-461.798C973.744,-458.969 943.111,-451.763 919.964,-435 780.831,-334.239 715.899,-122.432 696.359,-46.1393"/>
<polygon fill="none" stroke="black" points="699.72,-45.1522 693.9,-36.2991 692.928,-46.8493 699.72,-45.1522"/>
</g>
<!-- \\Numenor\\Html\\Remoto -->
<g id="node39" class="node"><title>\\Numenor\\Html\\Remoto</title>
<polygon fill="none" stroke="black" points="1091.96,-426 1034.96,-426 1034.96,-390 1091.96,-390 1091.96,-426"/>
<text text-anchor="middle" x="1063.46" y="-405.2" font-family="Courier,monospace" font-size="11.00">Remoto</text>
</g>
<!-- \\Numenor\\Php\\StringWrapper -->
<g id="node40" class="node"><title>\\Numenor\\Php\\StringWrapper</title>
<polygon fill="none" stroke="black" points="1115.46,-158 1011.46,-158 1011.46,-122 1115.46,-122 1115.46,-158"/>
<text text-anchor="middle" x="1063.46" y="-137.2" font-family="Courier,monospace" font-size="11.00">StringWrapper</text>
</g>
<!-- \\Numenor\\Php\\ArrayWrapper -->
<g id="node41" class="node"><title>\\Numenor\\Php\\ArrayWrapper</title>
<polygon fill="none" stroke="black" points="1112.46,-104 1014.46,-104 1014.46,-68 1112.46,-68 1112.46,-104"/>
<text text-anchor="middle" x="1063.46" y="-83.2" font-family="Courier,monospace" font-size="11.00">ArrayWrapper</text>
</g>
<!-- \\Numenor\\Configuracao\\Biblioteca -->
<g id="node42" class="node"><title>\\Numenor\\Configuracao\\Biblioteca</title>
<polygon fill="none" stroke="black" points="1105.46,-856 1021.46,-856 1021.46,-820 1105.46,-820 1105.46,-856"/>
<text text-anchor="middle" x="1063.46" y="-835.2" font-family="Courier,monospace" font-size="11.00">Biblioteca</text>
</g>
<!-- \\Numenor\\Debug\\Formatacao -->
<g id="node43" class="node"><title>\\Numenor\\Debug\\Formatacao</title>
<polygon fill="none" stroke="black" points="1105.46,-346 1021.46,-346 1021.46,-310 1105.46,-310 1105.46,-346"/>
<text text-anchor="middle" x="1063.46" y="-325.2" font-family="Courier,monospace" font-size="11.00">Formatacao</text>
</g>
<!-- \\Numenor\\Debug\\CronometroExecucao -->
<g id="node44" class="node"><title>\\Numenor\\Debug\\CronometroExecucao</title>
<polygon fill="none" stroke="black" points="1132.46,-292 994.464,-292 994.464,-256 1132.46,-256 1132.46,-292"/>
<text text-anchor="middle" x="1063.46" y="-271.2" font-family="Courier,monospace" font-size="11.00">CronometroExecucao</text>
</g>
<!-- \\Numenor\\Debug\\Output -->
<g id="node45" class="node"><title>\\Numenor\\Debug\\Output</title>
<polygon fill="none" stroke="black" points="1091.96,-238 1034.96,-238 1034.96,-202 1091.96,-202 1091.96,-238"/>
<text text-anchor="middle" x="1063.46" y="-217.2" font-family="Courier,monospace" font-size="11.00">Output</text>
</g>
<!-- \\Numenor\\Autenticacao\\Checksum -->
<g id="node46" class="node"><title>\\Numenor\\Autenticacao\\Checksum</title>
<polygon fill="none" stroke="black" points="1098.96,-776 1027.96,-776 1027.96,-740 1098.96,-740 1098.96,-776"/>
<text text-anchor="middle" x="1063.46" y="-755.2" font-family="Courier,monospace" font-size="11.00">Checksum</text>
</g>
</g>
</svg>
